<svg width="3821" height="1156" xmlns="http://www.w3.org/2000/svg" xmlns:xlink="http://www.w3.org/1999/xlink" xml:space="preserve" overflow="hidden"><defs><clipPath id="clip0"><rect x="392" y="246" width="3821" height="1156"/></clipPath></defs><g clip-path="url(#clip0)" transform="translate(-392 -246)"><text font-family="NanumSquare Neo Heavy,NanumSquare Neo Heavy_MSFontService,sans-serif" font-weight="900" font-size="550" transform="matrix(1 0 0 1 1374.62 919)">TalkPick</text><path d="M392 500.992C392 422.572 455.572 359 533.992 359L1093.01 359C1171.43 359 1235 422.572 1235 500.992L1235 849.008C1235 927.428 1171.43 991 1093.01 991L533.992 991C455.572 991 392 927.428 392 849.008Z" fill="#0E74F9" fill-rule="evenodd"/><path d="M521 537.839C521 492.641 557.641 456 602.839 456L1023.16 456C1068.36 456 1105 492.641 1105 537.839L1105 813.161C1105 858.36 1068.36 895 1023.16 895L602.839 895C557.641 895 521 858.36 521 813.161Z" fill="#FFFFFF" fill-rule="evenodd"/><path d="M818 536.5C818 533.463 820.463 531 823.5 531L1060.5 531C1063.54 531 1066 533.463 1066 536.5L1066 558.5C1066 561.538 1063.54 564 1060.5 564L823.5 564C820.463 564 818 561.538 818 558.5Z" fill="#0E74F9" fill-rule="evenodd"/><path d="M574 777.333C574 774.388 576.388 772 579.333 772L1064.67 772C1067.61 772 1070 774.388 1070 777.333L1070 798.667C1070 801.612 1067.61 804 1064.67 804L579.333 804C576.388 804 574 801.612 574 798.667Z" fill="#0E74F9" fill-rule="evenodd"/><path d="M717 987 521 1113 521 987Z" fill="#0E74F9" fill-rule="evenodd"/><path d="M684 881 575 955 575 881Z" fill="#FFFFFF" fill-rule="evenodd"/><rect x="574" y="525" width="195" height="194" fill="#0E74F9"/><path d="M574 719 635.5 613 697 719Z" fill="#FFFFFF" fill-rule="evenodd"/><path d="M671 719 720 636 769 719Z" fill="#FFFFFF" fill-rule="evenodd"/><path d="M818 616.5C818 613.462 820.463 611 823.5 611L1060.5 611C1063.54 611 1066 613.462 1066 616.5L1066 638.5C1066 641.537 1063.54 644 1060.5 644L823.5 644C820.463 644 818 641.537 818 638.5Z" fill="#0E74F9" fill-rule="evenodd"/><path d="M818 696.5C818 693.462 820.463 691 823.5 691L1060.5 691C1063.54 691 1066 693.462 1066 696.5L1066 718.5C1066 721.537 1063.54 724 1060.5 724L823.5 724C820.463 724 818 721.537 818 718.5Z" fill="#0E74F9" fill-rule="evenodd"/></g></svg>