<svg width="1586" height="1241" xmlns="http://www.w3.org/2000/svg" xmlns:xlink="http://www.w3.org/1999/xlink" xml:space="preserve" overflow="hidden"><defs><clipPath id="clip0"><rect x="1407" y="350" width="1586" height="1241"/></clipPath></defs><g clip-path="url(#clip0)" transform="translate(-1407 -350)"><text font-family="NanumSquare Neo Heavy,NanumSquare Neo Heavy_MSFontService,sans-serif" font-weight="900" font-size="275" transform="matrix(1 0 0 1 1572.94 1350)">TalkPick</text><path d="M1779 492.216C1779 413.672 1842.67 350 1921.22 350L2478.78 350C2557.33 350 2621 413.672 2621 492.216L2621 840.784C2621 919.328 2557.33 983 2478.78 983L1921.22 983C1842.67 983 1779 919.328 1779 840.784Z" fill="#0E74F9" fill-rule="evenodd"/><path d="M1908 528.838C1908 483.64 1944.64 447 1989.84 447L2410.16 447C2455.36 447 2492 483.64 2492 528.838L2492 804.161C2492 849.359 2455.36 885.999 2410.16 885.999L1989.84 885.999C1944.64 885.999 1908 849.359 1908 804.161Z" fill="#FFFFFF" fill-rule="evenodd"/><path d="M2205 527.5C2205 524.463 2207.46 522 2210.5 522L2447.5 522C2450.54 522 2453 524.463 2453 527.5L2453 549.5C2453 552.538 2450.54 555 2447.5 555L2210.5 555C2207.46 555 2205 552.538 2205 549.5Z" fill="#0E74F9" fill-rule="evenodd"/><path d="M1961 768.333C1961 765.388 1963.39 763 1966.33 763L2451.67 763C2454.61 763 2457 765.388 2457 768.333L2457 789.667C2457 792.612 2454.61 795 2451.67 795L1966.33 795C1963.39 795 1961 792.612 1961 789.667Z" fill="#0E74F9" fill-rule="evenodd"/><path d="M2104 979 1908 1104 1908 979Z" fill="#0E74F9" fill-rule="evenodd"/><path d="M2071 872 1962 946 1962 872Z" fill="#FFFFFF" fill-rule="evenodd"/><rect x="1961" y="516" width="194" height="194" fill="#0E74F9"/><path d="M1961 710 2022.5 604 2084 710Z" fill="#FFFFFF" fill-rule="evenodd"/><path d="M2058 710 2106.5 627 2155 710Z" fill="#FFFFFF" fill-rule="evenodd"/><path d="M2205 607.5C2205 604.462 2207.46 602 2210.5 602L2447.5 602C2450.54 602 2453 604.462 2453 607.5L2453 629.5C2453 632.537 2450.54 635 2447.5 635L2210.5 635C2207.46 635 2205 632.537 2205 629.5Z" fill="#0E74F9" fill-rule="evenodd"/><path d="M2205 687.5C2205 684.462 2207.46 682 2210.5 682L2447.5 682C2450.54 682 2453 684.462 2453 687.5L2453 709.5C2453 712.538 2450.54 715 2447.5 715L2210.5 715C2207.46 715 2205 712.538 2205 709.5Z" fill="#0E74F9" fill-rule="evenodd"/></g></svg>