<svg width="1585" height="1245" xmlns="http://www.w3.org/2000/svg" xmlns:xlink="http://www.w3.org/1999/xlink" xml:space="preserve" overflow="hidden"><defs><clipPath id="clip0"><rect x="1466" y="483" width="1585" height="1245"/></clipPath></defs><g clip-path="url(#clip0)" transform="translate(-1466 -483)"><path d="M1837 625.216C1837 546.672 1900.67 483 1979.22 483L2537.78 483C2616.33 483 2680 546.672 2680 625.216L2680 973.784C2680 1052.33 2616.33 1116 2537.78 1116L1979.22 1116C1900.67 1116 1837 1052.33 1837 973.784Z" fill="#0E74F9" fill-rule="evenodd"/><path d="M1966 661.839C1966 616.64 2002.64 580 2047.84 580L2469.16 580C2514.36 580 2551 616.64 2551 661.839L2551 937.161C2551 982.359 2514.36 1019 2469.16 1019L2047.84 1019C2002.64 1019 1966 982.359 1966 937.161Z" fill="#FFFFFF" fill-rule="evenodd"/><path d="M2015 691.001C2015 676.089 2027.09 664 2042 664L2150 664C2164.91 664 2177 676.089 2177 691.001L2177 800C2177 814.911 2164.91 827 2150 827L2042 827C2027.09 827 2015 814.911 2015 800Z" fill="#0E74F9" fill-rule="evenodd"/><path d="M2226 691.334C2226 688.388 2228.39 686 2231.33 686L2505.67 686C2508.61 686 2511 688.388 2511 691.334L2511 712.667C2511 715.612 2508.61 718 2505.67 718L2231.33 718C2228.39 718 2226 715.612 2226 712.667Z" fill="#0E74F9" fill-rule="evenodd"/><path d="M2015 898.5C2015 895.463 2017.46 893 2020.5 893L2505.5 893C2508.54 893 2511 895.463 2511 898.5L2511 920.5C2511 923.537 2508.54 926 2505.5 926L2020.5 926C2017.46 926 2015 923.537 2015 920.5Z" fill="#0E74F9" fill-rule="evenodd"/><path d="M2226 784.333C2226 781.388 2228.39 779 2231.33 779L2505.67 779C2508.61 779 2511 781.388 2511 784.333L2511 805.666C2511 808.612 2508.61 811 2505.67 811L2231.33 811C2228.39 811 2226 808.612 2226 805.666Z" fill="#0E74F9" fill-rule="evenodd"/><path d="M2162 1112 1966 1238 1966 1112Z" fill="#0E74F9" fill-rule="evenodd"/><path d="M2129 1005 2020 1079 2020 1005Z" fill="#FFFFFF" fill-rule="evenodd"/><text font-family="NanumSquare Neo Heavy,NanumSquare Neo Heavy_MSFontService,sans-serif" font-weight="900" font-size="275" transform="matrix(1 0 0 1 1631.41 1487)">TalkPick</text></g></svg>